<svg xmlns="http://www.w3.org/2000/svg" width="11.7" height="13" viewBox="0 0 11.7 13"><defs><style>.a{fill:#007afe;}</style></defs><g transform="translate(-4438.999 -5479.857)"><g transform="translate(4438.999 5479.857)"><path class="a" d="M4450.011,5484.124l-4.241-3.911a1.368,1.368,0,0,0-1.841,0l-4.241,3.911a2.34,2.34,0,0,0-.689,1.568v5.867a1.3,1.3,0,0,0,1.3,1.3h3.911v-3.873h1.293v3.873h3.895a1.3,1.3,0,0,0,1.3-1.3v-5.867A2.332,2.332,0,0,0,4450.011,5484.124Zm-.613,7.433H4446.8v-3.874h-3.894v3.874l-2.61,0v-5.867a1.072,1.072,0,0,1,.271-.612l4.24-3.911a.068.068,0,0,1,.078,0l4.24,3.911a1.068,1.068,0,0,1,.271.612Q4449.4,5491.558,4449.4,5491.557Z" transform="translate(-4438.999 -5479.857)"/></g></g></svg>